PathFileType	4	(X/Y/Z)	C:/Users/opensim2020/Desktop/walking_exp_matlab/subject06_walking14_straight_02.trc																																																																																																																																					
DataRate	CameraRate	NumFrames	NumMarkers	Units	OrigDataRate	OrigDataStartFrame	OrigNumFrames																																																																																																																																	
100	100	5	45	mm	100	1748	192																																																																																																																																	
Frame#	Time	LFHD			RFHD			LBHD			RBHD			C7			T10			CLAV			STRN			RBAK			LSHO			LUPA			LELB			LFRM			LWRA			LWRB			LFIN			RSHO			RUPA			RELB			RFRM			RWRA			RWRB			RFIN			LASI			RASI			LPSI			RPSI			LTHI			LKNE			LTIB			LANK			LHEE			LTOE			RTHI			RKNE			RTIB			RANK			RHEE			RTOE			*39			*40			*41			*42			*43			*44		
		X1	Y1	Z1	X2	Y2	Z2	X3	Y3	Z3	X4	Y4	Z4	X5	Y5	Z5	X6	Y6	Z6	X7	Y7	Z7	X8	Y8	Z8	X9	Y9	Z9	X10	Y10	Z10	X11	Y11	Z11	X12	Y12	Z12	X13	Y13	Z13	X14	Y14	Z14	X15	Y15	Z15	X16	Y16	Z16	X17	Y17	Z17	X18	Y18	Z18	X19	Y19	Z19	X20	Y20	Z20	X21	Y21	Z21	X22	Y22	Z22	X23	Y23	Z23	X24	Y24	Z24	X25	Y25	Z25	X26	Y26	Z26	X27	Y27	Z27	X28	Y28	Z28	X29	Y29	Z29	X30	Y30	Z30	X31	Y31	Z31	X32	Y32	Z32	X33	Y33	Z33	X34	Y34	Z34	X35	Y35	Z35	X36	Y36	Z36	X37	Y37	Z37	X38	Y38	Z38	X39	Y39	Z39	X40	Y40	Z40	X41	Y41	Z41	X42	Y42	Z42	X43	Y43	Z43	X44	Y44	Z44	X45	Y45	Z45
																																																																																																																																								
169	1.68	716.78522	1666.25342	909.03754	727.40576	1660.68359	1040.84973	587.47394	1603.28772	920.91589	599.375	1602.96692	1050.04797	601.77533	1447.79297	976.53717	582.43622	1117.80713	985.30499	715.25452	1377.68066	979.05786	763.20337	1204.75159	976.89734	534.89703	1276.33093	1054.16321	660.9007	1403.85291	815.11829	655.57581	1199.46643	747.38556	647.10046	1086.90967	737.71088	673.61517	939.54535	713.36133	741.38397	827.474	750.76147	679.16754	820.34766	717.48401	723.73322	741.7157	712.15509	665.30194	1407.79419	1139.59509	635.1059	1208.53198	1228.41638	654.49042	1087.74841	1244.14807	690.81049	972.96088	1259.74622	774.26459	848.92822	1222.29822	724.19458	839.815	1266.31299	775.68146	773.09521	1265.08521	768.52588	970.41919	885.08075	758.81073	970.20728	1104.73718	608.8158	988.29016	903.80798	606.37677	984.85962	1071.95166	730.23358	651.98096	825.39258	744.75421	489.30539	851.1095	709.18829	232.95082	863.44727	701.09601	63.59989	913.10431	663.64868	49.07574	961.33734	846.422	34.49637	914.0769	750.05939	631.88177	1165.30054	783.30768	508.94092	1154.79614	609.31805	323.59506	1147.90662	471.64001	199.46318	1104.0249	428.53088	204.34714	1056.6322	557.56989	72.34306	1109.5166	619.09833	1700.62463	974.3006	NaN	NaN	NaN	NaN	NaN	NaN	NaN	NaN	NaN	NaN	NaN	NaN	NaN	NaN	NaN
170	1.69	726.03595	1666.77942	908.65338	736.72021	1661.02246	1040.47693	596.56927	1604.15234	920.52277	608.4953	1603.72339	1049.63672	610.39716	1448.48389	976.10413	590.927	1118.57971	984.0733	723.94397	1378.26697	978.37665	771.67474	1205.31274	975.9353	543.29871	1277.19067	1053.57825	670.00623	1404.75781	814.53467	667.71484	1200.35974	746.53259	661.28583	1087.67456	736.57141	691.99573	940.85101	712.55621	761.81421	830.56818	750.27667	700.3457	821.92328	716.67529	747.16925	744.75891	711.38062	673.95172	1408.40784	1138.90674	642.90582	1208.95056	1227.22144	661.1756	1088.02185	1242.32202	694.71942	972.30756	1258.19495	774.85663	845.72955	1221.41528	724.54974	838.28125	1265.43103	773.91669	769.9295	1264.47913	776.39868	970.63916	883.51581	767.61151	971.32672	1103.43359	616.8501	988.7392	903.06458	615.18579	985.73633	1071.20593	735.88721	651.8244	825.00519	748.62396	488.94748	850.79004	710.47772	232.92435	863.34918	701.29126	63.71985	913.27167	663.94836	49.23515	961.43433	846.54578	34.387	914.16931	763.43164	633.75049	1164.90723	798.45233	511.70566	1154.08728	628.28815	322.11871	1147.73364	493.99823	194.26756	1104.03442	450.21808	197.49409	1056.625	585.11359	71.19611	1110.40161	628.44189	1701.36511	974.14349	NaN	NaN	NaN	NaN	NaN	NaN	NaN	NaN	NaN	NaN	NaN	NaN	NaN	NaN	NaN
171	1.7	735.29865	1667.27698	908.38739	746.02307	1661.26941	1040.17029	605.65985	1605.16064	920.07141	617.61218	1604.38831	1049.3783	619.11798	1449.05237	975.42413	599.00702	1119.35388	983.02771	732.52179	1378.7793	977.72449	780.09326	1205.83276	974.97723	551.76752	1277.92358	1052.74585	678.94958	1405.67712	813.98511	679.81696	1201.37109	745.72156	675.4118	1088.57227	735.40802	709.67572	942.58069	711.80298	782.48993	834.26984	749.84637	721.63562	823.91254	715.71545	770.83502	748.297	710.60846	682.56744	1408.95984	1138.18665	650.60474	1209.47449	1226.08105	667.64185	1088.24243	1240.58691	698.48297	971.74255	1256.72607	775.50885	842.8161	1220.63074	724.81555	836.89758	1264.61011	772.20703	767.0614	1263.71631	784.37598	970.89905	881.86664	776.24683	972.14618	1101.84351	624.74915	989.20502	902.4035	623.94189	986.61475	1070.60022	741.55383	651.67676	824.61359	752.36316	488.59354	850.40033	712.07172	232.96484	863.16364	701.44464	63.91571	913.27808	664.18945	49.3358	961.651	846.69226	34.36069	914.18207	776.27673	636.10406	1164.49988	813.25549	514.32495	1153.16321	647.43274	320.11002	1147.46838	516.64569	188.48685	1104.07617	472.92361	189.68878	1056.32104	612.63501	69.53781	1111.61865	637.8382	1702.0531	973.89813	NaN	NaN	NaN	NaN	NaN	NaN	NaN	NaN	NaN	NaN	NaN	NaN	NaN	NaN	NaN
172	1.71	744.5542	1667.75195	908.14929	755.30182	1661.39734	1039.94922	614.7475	1606.05054	919.78192	626.80481	1604.99084	1049.02979	627.69305	1449.60254	974.86523	607.64246	1119.86853	982.06787	741.0462	1379.23828	977.0451	788.51862	1206.25977	973.9696	560.4303	1278.47461	1052.01526	687.73718	1406.47522	813.47394	691.80688	1202.40051	744.87671	689.38428	1089.48877	734.19757	727.54224	944.40057	710.89044	803.15491	838.34436	749.42352	742.83319	826.1322	714.9538	794.35144	752.10907	709.9881	691.24188	1409.38135	1137.47546	658.12061	1209.82544	1224.84631	673.99701	1088.33545	1238.89124	702.19812	971.23505	1255.36267	776.01605	840.01349	1219.93237	725.07062	835.72357	1263.94568	770.5329	764.42334	1263.10999	791.82782	970.89105	880.43182	785.2381	972.98419	1100.54883	632.61377	989.53534	901.85358	632.69928	987.45978	1070.14197	746.70819	651.47675	824.24835	756.03546	488.30038	849.98639	713.58337	232.94725	862.97412	701.64264	63.93587	913.5	661.26813	51.81937	958.55334	846.74561	34.2265	914.22382	789.11902	638.0108	1164.07849	827.7536	516.90057	1152.28467	666.35754	317.9516	1147.16772	540.19202	181.98669	1104.00085	496.25174	181.01538	1056.04016	641.0553	67.61651	1113.07849	647.35175	1702.72803	973.86761	NaN	NaN	NaN	NaN	NaN	NaN	NaN	NaN	NaN	NaN	NaN	NaN	NaN	NaN	NaN
173	1.72	753.81433	1668.13806	907.92273	764.65784	1661.49097	1039.6803	623.76184	1606.89038	919.45184	635.82971	1605.59534	1048.71521	636.34454	1450.03906	974.21179	615.77679	1120.15332	981.31635	749.60681	1379.63867	976.37482	796.91553	1206.62244	972.9328	569.09589	1279.12695	1051.23169	696.45197	1407.19092	812.95032	703.54761	1203.38306	744.05548	702.91498	1090.39124	733.11176	745.02856	946.33777	709.94159	823.86884	842.85577	749.11224	764.01831	828.66034	714.39185	817.78918	756.27527	709.57037	699.98627	1409.87915	1136.99524	665.70227	1210.10974	1223.66785	680.14764	1088.43237	1237.34644	705.83588	970.71454	1254.125	776.77411	837.47406	1219.45142	725.47412	834.72034	1263.28357	768.87152	761.99219	1262.69165	799.5368	970.91956	878.87164	794.07324	973.5871	1099.151	640.40955	989.80908	901.47656	641.40692	988.20599	1069.82434	752.3783	651.49188	824.28156	759.66107	487.9845	849.5224	715.07733	232.99297	862.7392	701.80402	64.01373	913.52039	662.33948	51.46058	959.49432	846.86652	34.20948	914.11475	801.57159	639.92322	1163.86255	841.76758	519.27478	1151.20544	685.34918	315.42703	1146.76257	564.03937	174.84932	1103.98682	520.31689	171.64024	1055.63416	669.93658	65.38237	1114.83044	656.72046	1703.31018	973.7887	NaN	NaN	NaN	NaN	NaN	NaN	NaN	NaN	NaN	NaN	NaN	NaN	NaN	NaN	NaN
